<svg height="106" viewBox="0 0 55 106" width="55" xmlns="http://www.w3.org/2000/svg"><path d="m40.4291 70.1824c0 7.1603 5.3241 13.0515 8.6845 17.6734 1.9219 2.6433 3.8864 4.9657 3.8864 6.6846 0 3.6813-5.2924 9.4596-16.7254 9.4596-21.284 0-30.1248-18.921-30.1248-30.3448 0-12.6864 8.4211-25.0636 8.4211-37.8377 0-7.1603-5.32405-13.0514-8.68454-17.6733-1.92188-2.6434-3.88636-4.8529-3.88636-6.6846 0-3.56848 5.29246-9.4596 16.7255-9.4596 21.284 0 30.1247 18.921 30.1247 30.3448 0 12.5652-8.4211 25.1171-8.4211 37.8376z" fill="#24bc3c" stroke="#24bc3c" stroke-linejoin="round" stroke-width="4"/></svg>